{
  "accessors": [
    {
      "bufferView": 2,
      "componentType": 5126,
      "count": 8228,
      "max": [
        0.21857286989688873,
        0.027654524892568588,
        0.271879643201828
      ],
      "min": [
        -0.21855880320072174,
        -0.0005138970445841551,
        -0.25135359168052673
      ],
      "type": "VEC3"
    },
    {
      "bufferView": 2,
      "byteOffset": 98736,
      "componentType": 5126,
      "count": 8228,
      "max": [
        1.0,
        1.0,
        1.0
      ],
      "min": [
        -1.0,
        -1.0,
        -1.0
      ],
      "type": "VEC3"
    },
    {
      "bufferView": 3,
      "componentType": 5126,
      "count": 8228,
      "max": [
        1.0,
        1.0,
        1.0,
        1.0
      ],
      "min": [
        -1.0,
        -1.0,
        -1.0,
        -1.0
      ],
      "type": "VEC4"
    },
    {
      "bufferView": 1,
      "componentType": 5126,
      "count": 8228,
      "max": [
        0.9941195249557495,
        0.9958788156509399
      ],
      "min": [
        0.0014822462107986212,
        0.005756735801696777
      ],
      "type": "VEC2"
    },
    {
      "bufferView": 1,
      "byteOffset": 65824,
      "componentType": 5126,
      "count": 8228,
      "max": [
        0.9941195249557495,
        0.9958788156509399
      ],
      "min": [
        0.0014822462107986212,
        0.005756735801696777
      ],
      "type": "VEC2"
    },
    {
      "bufferView": 1,
      "byteOffset": 131648,
      "componentType": 5126,
      "count": 8228,
      "max": [
        0.9941195249557495,
        0.9958788156509399
      ],
      "min": [
        0.0014822462107986212,
        0.005756735801696777
      ],
      "type": "VEC2"
    },
    {
      "bufferView": 0,
      "componentType": 5125,
      "count": 45768,
      "type": "SCALAR"
    },
    {
      "bufferView": 2,
      "byteOffset": 197472,
      "componentType": 5126,
      "count": 4,
      "max": [
        0.20327241718769073,
        0.0,
        0.2468763291835785
      ],
      "min": [
        -0.20327241718769073,
        0.0,
        -0.2468763291835785
      ],
      "type": "VEC3"
    },
    {
      "bufferView": 2,
      "byteOffset": 197520,
      "componentType": 5126,
      "count": 4,
      "max": [
        0.0,
        1.0,
        0.0
      ],
      "min": [
        0.0,
        1.0,
        0.0
      ],
      "type": "VEC3"
    },
    {
      "bufferView": 1,
      "byteOffset": 197472,
      "componentType": 5126,
      "count": 4,
      "max": [
        1.3560148477554321,
        1.5396384000778198
      ],
      "min": [
        -0.35601484775543213,
        -0.5396384000778198
      ],
      "type": "VEC2"
    },
    {
      "bufferView": 0,
      "byteOffset": 183072,
      "componentType": 5125,
      "count": 6,
      "type": "SCALAR"
    }
  ],
  "asset": {
    "extras": {
      "author": "cereal (https://sketchfab.com/skeeeyee)",
      "license": "SKETCHFAB Standard (https://sketchfab.com/licenses)",
      "source": "https://sketchfab.com/3d-models/gold-record-plaque-c52ebdea080d423e87b8b7144f2024f5",
      "title": "gold record plaque"
    },
    "generator": "Sketchfab-15.83.0",
    "version": "2.0"
  },
  "bufferViews": [
    {
      "buffer": 0,
      "byteLength": 183096,
      "name": "floatBufferViews",
      "target": 34963
    },
    {
      "buffer": 0,
      "byteLength": 197504,
      "byteOffset": 183096,
      "byteStride": 8,
      "name": "floatBufferViews",
      "target": 34962
    },
    {
      "buffer": 0,
      "byteLength": 197568,
      "byteOffset": 380600,
      "byteStride": 12,
      "name": "floatBufferViews",
      "target": 34962
    },
    {
      "buffer": 0,
      "byteLength": 131648,
      "byteOffset": 578168,
      "byteStride": 16,
      "name": "floatBufferViews",
      "target": 34962
    }
  ],
  "buffers": [
    {
      "byteLength": 709816,
      "uri": "scene.bin"
    }
  ],
  "extensionsUsed": [
    "KHR_materials_transmission"
  ],
  "images": [
    {
      "uri": "textures/recprd_baseColor.png"
    },
    {
      "uri": "textures/recprd_metallicRoughness.png"
    },
    {
      "uri": "textures/recprd_normal.png"
    },
    {
      "uri": "textures/Material.001_baseColor.png"
    },
    {
      "uri": "textures/Material.001_metallicRoughness.png"
    },
    {
      "uri": "textures/Material.001_transmission.png"
    }
  ],
  "materials": [
    {
      "doubleSided": true,
      "name": "recprd",
      "normalTexture": {
        "index": 2,
        "texCoord": 1
      },
      "pbrMetallicRoughness": {
        "baseColorTexture": {
          "index": 0
        },
        "metallicRoughnessTexture": {
          "index": 1
        },
        "roughnessFactor": 0.33371186573937184
      }
    },
    {
      "alphaMode": "BLEND",
      "doubleSided": true,
      "extensions": {
        "KHR_materials_transmission": {
          "transmissionFactor": 1.0,
          "transmissionTexture": {
            "index": 5
          }
        }
      },
      "name": "Material.001",
      "pbrMetallicRoughness": {
        "baseColorFactor": [
          0.8,
          0.8,
          0.8,
          1.0
        ],
        "baseColorTexture": {
          "index": 3
        },
        "metallicFactor": 0.0,
        "metallicRoughnessTexture": {
          "index": 4
        },
        "roughnessFactor": 0.4065879824140346
      }
    }
  ],
  "meshes": [
    {
      "name": "Cube.055_recprd_0",
      "primitives": [
        {
          "attributes": {
            "NORMAL": 1,
            "POSITION": 0,
            "TANGENT": 2,
            "TEXCOORD_0": 3,
            "TEXCOORD_1": 4,
            "TEXCOORD_2": 5
          },
          "indices": 6,
          "material": 0,
          "mode": 4
        }
      ]
    },
    {
      "name": "Cube.001_Material.001_0",
      "primitives": [
        {
          "attributes": {
            "NORMAL": 8,
            "POSITION": 7,
            "TEXCOORD_0": 9
          },
          "indices": 10,
          "material": 1,
          "mode": 4
        }
      ]
    }
  ],
  "nodes": [
    {
      "children": [
        1
      ],
      "matrix": [
        1.0,
        0.0,
        0.0,
        0.0,
        0.0,
        2.220446049250313e-16,
        -1.0,
        0.0,
        0.0,
        1.0,
        2.220446049250313e-16,
        0.0,
        0.0,
        0.0,
        0.0,
        1.0
      ],
      "name": "Sketchfab_model"
    },
    {
      "children": [
        2
      ],
      "matrix": [
        0.009999999776482582,
        0.0,
        0.0,
        0.0,
        0.0,
        0.0,
        0.009999999776482582,
        0.0,
        0.0,
        -0.009999999776482582,
        0.0,
        0.0,
        0.0,
        0.0,
        0.0,
        1.0
      ],
      "name": "record plaque.fbx"
    },
    {
      "children": [
        3,
        5
      ],
      "name": "RootNode"
    },
    {
      "children": [
        4
      ],
      "matrix": [
        100.0,
        0.0,
        0.0,
        0.0,
        0.0,
        -2.8212996916465727e-05,
        -99.99999999999602,
        0.0,
        0.0,
        99.99999999999602,
        -2.8212996916465727e-05,
        0.0,
        0.0050996895879507065,
        0.20868083834648132,
        -0.0296118576079607,
        1.0
      ],
      "name": "Cube.055"
    },
    {
      "mesh": 0,
      "name": "Cube.055_recprd_0"
    },
    {
      "children": [
        6
      ],
      "matrix": [
        100.0,
        0.0,
        0.0,
        0.0,
        0.0,
        -1.629206793918314e-05,
        -99.99999999999868,
        0.0,
        0.0,
        99.99999999999868,
        -1.629206793918314e-05,
        0.0,
        0.0,
        1.2364729642868042,
        -1.2206494808197021,
        1.0
      ],
      "name": "Cube.001"
    },
    {
      "mesh": 1,
      "name": "Cube.001_Material.001_0"
    }
  ],
  "samplers": [
    {
      "magFilter": 9729,
      "minFilter": 9987,
      "wrapS": 10497,
      "wrapT": 10497
    }
  ],
  "scene": 0,
  "scenes": [
    {
      "name": "Sketchfab_Scene",
      "nodes": [
        0
      ]
    }
  ],
  "textures": [
    {
      "sampler": 0,
      "source": 0
    },
    {
      "sampler": 0,
      "source": 1
    },
    {
      "sampler": 0,
      "source": 2
    },
    {
      "sampler": 0,
      "source": 3
    },
    {
      "sampler": 0,
      "source": 4
    },
    {
      "sampler": 0,
      "source": 5
    }
  ]
}
